<svg width="760" height="172" viewBox="0 0 760 172" fill="none" xmlns="http://www.w3.org/2000/svg">
  <path d="M158.635 0H125.792L28.2981 148.226C20.449 160.423 13.013 162.697 1.65244 162.697L0 168.692H55.5634L57.629 162.697C36.9734 162.697 36.7669 158.769 43.5832 148.226L59.9011 123.005H110.714L109.474 144.298C108.648 156.909 103.278 162.697 86.1337 162.697L84.2747 168.692H169.169L171.235 162.697C157.395 162.697 153.677 158.769 154.09 144.298L158.635 0ZM113.399 40.5192H115.878L111.54 112.048H67.1305L113.399 40.5192Z" fill="#475DDC" />
  <path d="M174.1 168.692H262.3L264.159 162.697C244.949 162.697 242.47 157.322 246.188 145.332L283.575 23.5673C285.021 19.0192 287.913 16.7452 292.87 16.7452H301.545C316.624 16.7452 321.581 25.2212 316.004 48.7885H323.44L334.388 3.3077H202.812L187.32 48.7885H194.756C202.812 28.3221 212.933 16.7452 229.87 16.7452H235.034C239.372 16.7452 241.438 19.4327 240.198 23.774L202.812 145.332C199.094 157.322 191.451 162.697 175.753 162.697L174.1 168.692Z" fill="#475DDC" />
  <path d="M337.158 168.692C364.217 93.4423 379.502 82.6923 385.905 82.6923C390.243 82.6923 392.928 84.9663 398.505 84.9663C406.561 84.9663 415.443 74.4231 415.443 64.0865C415.443 57.2644 411.931 53.75 405.528 53.75C384.046 53.75 368.761 85.1731 350.584 124.452H348.106L357.194 100.885C362.771 87.6538 367.729 77.524 367.729 70.0817C367.729 61.8125 362.771 54.3702 351.204 54.3702C331.994 54.3702 313.818 70.0817 302.044 92.4087H308.034C317.949 78.1442 323.939 71.9423 328.276 71.9423C329.722 71.9423 330.549 72.7692 330.549 74.8365C330.549 78.5577 326.417 90.7548 322.699 100.471L299.978 168.692H337.158Z" fill="#475DDC" />
  <path d="M500.65 154.014C498.585 154.014 497.758 153.187 497.758 150.293C497.758 146.572 502.509 134.582 505.401 126.519L529.775 55.4038L524.611 52.3029C518.621 58.0913 507.26 63.8798 491.975 63.8798L486.398 79.1779H485.572C485.778 66.5673 480.821 54.1635 463.677 54.1635C432.487 54.1635 398.405 98.8173 398.405 138.51C398.405 157.942 407.7 171.793 422.985 171.793C444.674 171.793 459.546 142.438 469.254 121.971H471.113L470.08 125.072C464.296 141.197 460.992 146.779 460.992 153.601C460.992 163.524 466.362 171.793 482.886 171.793C505.401 171.793 519.447 149.26 527.709 129.413H521.925C515.522 143.264 506.64 154.014 500.65 154.014ZM441.369 146.365C437.238 146.365 435.379 142.024 435.379 134.168C435.379 110.188 456.241 70.2885 468.841 70.2885C474.211 70.2885 476.69 74.4231 476.69 83.9327C476.69 87.6538 476.277 92.6154 474.005 100.264C467.188 122.385 450.664 146.365 441.369 146.365Z" fill="#475DDC" />
  <path d="M568.904 168.692C599.474 90.5481 614.759 79.1779 619.51 79.1779C621.782 79.1779 622.815 80.625 622.815 83.5192C622.815 87.4471 616.618 102.952 608.149 124.245C601.333 141.404 597.202 146.779 597.202 153.601C597.202 163.524 602.572 171.793 619.097 171.793C641.611 171.793 655.864 149.26 664.126 129.413H658.136C651.733 143.264 642.851 154.014 636.861 154.014C635.002 154.014 633.969 153.187 633.969 150.293C633.969 146.572 639.339 134.788 642.438 126.933C650.493 109.774 661.441 85.7933 661.441 73.8029C661.441 62.8462 654.418 54.1635 640.785 54.1635C618.064 54.1635 602.986 83.3125 583.363 124.452H580.884L589.973 100.885C595.55 87.6538 600.507 77.524 600.507 70.0817C600.507 61.8125 595.55 54.3702 583.982 54.3702C564.773 54.3702 546.596 70.0817 534.822 92.4087H540.812C550.727 78.1442 556.717 71.9423 561.055 71.9423C562.501 71.9423 563.327 72.7692 563.327 74.8365C563.327 78.5577 558.989 90.7548 555.478 100.471L531.724 168.692H568.904Z" fill="#475DDC" />
  <path d="M699.479 172C724.679 172 743.682 153.808 743.682 133.548C743.682 121.351 736.659 111.841 728.81 102.538L725.505 98.1971C718.276 89.5144 712.699 82.6923 712.699 74.8365C712.699 67.3942 718.069 63.2596 723.646 63.2596C730.463 63.2596 733.354 67.601 735.007 72.7692C737.072 80.0048 739.551 84.3462 745.748 84.3462C753.184 84.3462 760 78.1442 760 70.0817C760 62.4327 751.944 53.3365 730.463 53.3365C704.643 53.3365 682.542 69.0481 682.542 92.8221C682.542 105.639 688.738 114.115 696.174 122.798L700.306 127.553C707.328 135.409 713.112 141.611 713.112 150.707C713.112 157.529 710.014 161.663 704.023 161.663C698.653 161.663 694.109 157.942 689.152 146.572C685.847 139.337 683.368 136.442 677.584 136.442C669.942 136.442 663.332 142.644 663.332 150.5C663.332 164.144 683.161 172 699.479 172Z" fill="#475DDC" />
</svg>